<svg height="480pt" viewBox="0 0 480 480.16162" width="480pt" xmlns="http://www.w3.org/2000/svg"><path d="m352.082031 120c0 61.855469-50.144531 112-112 112s-112-50.144531-112-112 50.144531-112 112-112 112 50.144531 112 112zm0 0" fill="#f9e109"/><path d="m320.082031 120c0 44.183594-35.820312 80-80 80-44.183593 0-80-35.816406-80-80s35.816407-80 80-80c44.179688 0 80 35.816406 80 80zm0 0" fill="#fcbc04"/><path d="m240.082031 40c-31.765625.046875-60.496093 18.886719-73.203125 48 23.820313-19.945312 57.03125-24.296875 85.183594-11.164062 28.152344 13.132812 46.15625 41.378906 46.179688 72.445312.003906 11.023438-2.3125 21.925781-6.800782 32 25.75-21.613281 35.246094-57.019531 23.757813-88.613281-11.484375-31.597657-41.5-52.640625-75.117188-52.667969zm0 0" fill="#e59730"/><path d="m280.082031 274.960938-51.28125-50.960938c-6.003906-6.007812-14.148437-9.386719-22.640625-9.386719-8.492187 0-16.636718 3.378907-22.640625 9.386719l-62.238281 62.238281c-12.460938 12.492188-12.460938 32.710938 0 45.203125l46.800781 44.558594 112-78.398438c3.003907-3.003906 4.691407-7.074218 4.691407-11.320312s-1.6875-8.320312-4.691407-11.320312zm0 0" fill="#fcbc04"/><path d="m177.839844 184.480469-90.480469 90.480469-79.199219-79.199219 135.921875-45.042969zm0 0" fill="#4891d3"/><g fill="#e59730"><path d="m104.351562 258.011719 62.226563-62.226563 22.628906 22.625-62.226562 62.226563zm0 0"/><path d="m313.589844 388.113281 11.3125 11.316407c6.25 6.246093 6.25 16.378906 0 22.625-6.246094 6.25-16.378906 6.25-22.625 0l-11.316406-11.3125zm0 0"/><path d="m291.011719 410.675781 11.3125 11.3125c6.25 6.25 6.25 16.378907 0 22.628907-6.246094 6.246093-16.378907 6.246093-22.625 0l-11.3125-11.316407zm0 0"/><path d="m336.132812 365.363281 11.316407 11.3125c6.246093 6.25 6.246093 16.378907 0 22.628907-6.25 6.246093-16.378907 6.246093-22.628907 0l-11.3125-11.316407zm0 0"/><path d="m268.410156 433.371094 11.316406 11.3125c6.246094 6.25 6.246094 16.378906 0 22.628906-6.25 6.25-16.382812 6.25-22.628906 0l-11.3125-11.3125zm0 0"/></g><path d="m161.839844 168.480469-23.597656 24c-28.253907 27.996093-73.855469 27.78125-101.839844-.480469l-4.320313-4.160156-24 8 79.199219 79.199218 90.558594-90.558593zm0 0" fill="#2d72bc"/><path d="m254.402344 249.679688-41.042969 41.039062c-12.003906 12.019531-28.292969 18.773438-45.277344 18.773438-16.988281 0-33.277343-6.753907-45.28125-18.773438l-2.71875-2.71875c-11.078125 12.617188-10.519531 31.652344 1.277344 43.601562l46.722656 44.398438 112-78.398438c3.003907-3.003906 4.691407-7.074218 4.691407-11.320312s-1.6875-8.320312-4.691407-11.320312zm0 0" fill="#e59730"/><path d="m387.121094 291.921875-90.480469-90.480469 36.800781-36.800781 138.558594 42.480469zm0 0" fill="#4891d3"/><path d="m285.359375 235.359375c-6-6.007813-14.144531-9.382813-22.636719-9.382813-8.496094 0-16.640625 3.375-22.640625 9.382813l-5.679687 50.960937-79.203125 79.199219c-6.203125 6.242188-6.203125 16.320313 0 22.558594 3.003906 3.007813 7.074219 4.695313 11.320312 4.695313 4.246094 0 8.320313-1.6875 11.320313-4.695313l50.960937-50.878906-50.960937 50.878906c-3.003906 3.003906-4.691406 7.074219-4.691406 11.320313 0 4.25 1.6875 8.320312 4.691406 11.320312 3.003906 3.003906 7.074218 4.695312 11.320312 4.695312s8.320313-1.691406 11.320313-4.695312l50.878906-50.71875-50.878906 50.878906c-3.003907 3.003906-4.691407 7.074219-4.691407 11.320313 0 4.246093 1.6875 8.320312 4.691407 11.320312 3 3.003907 7.074219 4.691407 11.320312 4.691407 4.246094 0 8.320313-1.6875 11.320313-4.691407l50.878906-50.878906-50.878906 50.878906c-3.003906 3-4.691406 7.074219-4.691406 11.320313s1.6875 8.320312 4.691406 11.320312c3 3.003906 7.074218 4.691406 11.320312 4.691406s8.316406-1.6875 11.320313-4.691406l84.800781-84.878906 22.636719-22.640625c12.460937-12.492187 12.460937-32.710937 0-45.199219l-67.839844-67.921875" fill="#f9e109"/><path d="m313.667969 218.414062 62.226562 62.226563-22.628906 22.628906-62.222656-62.226562zm0 0" fill="#f9e109"/><path d="m353.199219 303.28125-39.597657-84.882812 62.238282 62.242187zm0 0" fill="#fcbc04"/><path d="m447.519531 200-15.4375 14.71875c-24.992187 24.976562-65.492187 24.976562-90.480469 0l-29.28125-29.277344-16 16 90.800782 90.480469 84.960937-84.800781zm0 0" fill="#2d72bc"/><path d="m361.441406 317.921875c-1.28125 5.492187-4.046875 10.53125-8 14.558594l-107.679687 107.519531c-3.816407 3.796875-9.289063 5.421875-14.5625 4.320312l42.800781-61.839843-42.878906 42.878906c-3 3.003906-7.074219 4.691406-11.320313 4.691406-4.246093 0-8.320312-1.6875-11.320312-4.691406-.480469-.480469-.878907-1.039063-1.359375-1.597656l44.238281-64-42.878906 42.878906c-3 3.003906-7.074219 4.691406-11.320313 4.691406s-8.316406-1.6875-11.320312-4.691406c-.46875-.496094-.898438-1.03125-1.277344-1.601563l44.238281-64-42.960937 42.882813c-3 3.003906-7.074219 4.691406-11.320313 4.691406-4.246093 0-8.316406-1.6875-11.320312-4.691406l-.878907-1.042969 72-92.71875-79.199218 79.199219c-6.203125 6.242187-6.203125 16.320313 0 22.5625 3 3.003906 7.074218 4.691406 11.320312 4.691406s8.316406-1.6875 11.320313-4.691406c-6.253907 6.25-6.253907 16.386719 0 22.636719 6.25 6.253906 16.386719 6.253906 22.640625 0-6.253906 6.253906-6.253906 16.390625 0 22.640625 6.25 6.253906 16.386718 6.253906 22.636718 0-3.414062 3.433593-5.089843 8.226562-4.558593 13.039062.039062.160157.039062.324219 0 .480469.230469 1.542969.660156 3.050781 1.28125 4.480469.101562.230469.238281.445312.398437.640625.710938 1.476562 1.65625 2.828125 2.800782 4 3 3.003906 7.074218 4.691406 11.320312 4.691406s8.320312-1.6875 11.320312-4.691406l107.597657-107.359375c7.945312-8.019531 11.078125-19.632813 8.242187-30.558594zm0 0" fill="#fcbc04"/><path d="m237.679688 256.960938-21.597657 7.039062 12 28.640625 6.320313-6.320313zm0 0" fill="#e59730"/><path d="m234.722656 283.28125 14.316406 14.320312c6.253907 6.359376 16.480469 6.449219 22.839844.199219 6.363282-6.253906 6.453125-16.476562.203125-22.839843l-32.402343-32zm0 0" fill="#e59730"/><path d="m183.519531 224c6.003907-6.007812 14.148438-9.386719 22.640625-9.386719 8.492188 0 16.636719 3.378907 22.640625 9.386719l51.28125 50.960938c3.003907 3 4.691407 7.074218 4.691407 11.320312s-1.6875 8.316406-4.691407 11.320312c-3.003906 3.003907-7.074219 4.691407-11.320312 4.691407-4.246094 0-8.320313-1.6875-11.320313-4.691407l-36.878906-36.882812" fill="#fcbc04"/><path d="m472.082031 72-48-64-48 64h24v80h48v-80zm0 0" fill="#a1d51c"/><path d="m424.082031 80c.015625 17.132812 9.164063 32.953125 24 41.519531v-49.519531h24l-48-64zm0 0" fill="#c4f236"/><path d="m104.082031 88-48 64-48-64h24v-80h48v80zm0 0" fill="#a1d51c"/><path d="m80.082031 8h-24v72c.019531 16.796875 8.816407 32.363281 23.199219 41.039062l24.800781-33.039062h-24zm0 0" fill="#c4f236"/><path d="m466.320312 201.441406-79.199218 79.199219-5.601563-5.679687-32-32-7.199219-7.28125 33.761719-34.238282c2.71875-3.175781 2.535157-7.90625-.421875-10.863281-2.953125-2.953125-7.683594-3.136719-10.859375-.417969l-34.238281 33.839844-22.5625-22.640625 28.082031-28.238281c2.71875-3.175782 2.535157-7.90625-.421875-10.863282-2.953125-2.953124-7.683594-3.136718-10.859375-.417968l-34 33.921875c-1.515625 1.5-2.367187 3.546875-2.367187 5.679687 0 2.132813.851562 4.175782 2.367187 5.679688l11.359375 11.277344-11.359375 11.363281c-13.429687-13.441407-34.460937-15.582031-50.320312-5.121094l-6.238281-6.242187c-11.246094-11.179688-28.035157-14.664063-42.800782-8.878907l-13.761718-13.757812 5.679687-5.601563c1.515625-1.503906 2.367187-3.546875 2.367187-5.679687 0-2.132813-.851562-4.179688-2.367187-5.679688l-33.519531-33.441406c-3.121094-3.101563-8.160156-3.101563-11.277344 0-3.101562 3.121094-3.101562 8.160156 0 11.28125l27.839844 27.839844-45.28125 45.28125-28.242188-28.320313c-1.5-1.515625-3.546875-2.367187-5.679687-2.367187-2.132813 0-4.175781.851562-5.679688 2.367187-3.101562 3.117188-3.101562 8.160156 0 11.277344l28.320313 28.320312-22.480469 22.960938-73.519531-73.839844c-1.5-1.515625-3.546875-2.367187-5.679688-2.367187-2.132812 0-4.175781.851562-5.679687 2.367187-3.101563 3.121094-3.101563 8.160156 0 11.28125l79.199219 79.199219c1.511718 1.496094 3.554687 2.332031 5.679687 2.320313 2.128906.011718 4.171875-.824219 5.679687-2.320313l11.042969-11.28125 11.277344 11.28125c-15.613281 15.621094-15.613281 40.9375 0 56.558594l29.363281 29.28125c-1.5625 3.21875-2.378906 6.742187-2.402344 10.320312.007813 6.363281 2.539063 12.460938 7.039063 16.960938 4.242187 4.277343 9.980469 6.742187 16 6.878906.210937 6.007813 2.664063 11.714844 6.882813 16 4.253906 4.253906 9.980468 6.71875 16 6.878906.453124 12.3125 10.328124 22.1875 22.636718 22.640625.683594 12.753906 11.230469 22.738282 24 22.71875 3.578125-.003906 7.109375-.824218 10.320313-2.398437l6.640625 6.71875c6.746094 6.691406 16.804687 8.773437 25.652344 5.3125 8.847656-3.464844 14.816406-11.820313 15.230468-21.3125 12.210938-.671875 21.964844-10.425781 22.636719-22.640625 12.214844-.671875 21.96875-10.425782 22.640625-22.636719 6.007812-.210937 11.71875-2.664063 16-6.882813 4.519531-4.503906 7.058594-10.621093 7.058594-17 0-6.378906-2.539063-12.496093-7.058594-17l-5.679688-5.597656 11.359376-11.363281c13.058593-13.589844 14.859374-34.453125 4.320312-50.078125l12.082031-12.078125 5.679688 5.679687c3.121093 3.101563 8.160156 3.101563 11.277343 0l84.640626-84.882812c3.101562-3.117188 3.101562-8.160156 0-11.277344-1.5-1.515625-3.546876-2.367187-5.679688-2.367187s-4.175781.851562-5.679688 2.367187zm-339.359374 67.917969-11.359376-11.359375 50.960938-50.878906 11.277344 11.277344zm0 22.5625 62.238281-62.160156c9.371093-9.359375 24.550781-9.359375 33.921875 0l50.878906 50.878906c2.71875 3.171875 2.535156 7.90625-.417969 10.859375-2.957031 2.957031-7.6875 3.136719-10.859375.421875l-36.882812-36.882813c-3.136719-3.136718-8.222656-3.136718-11.359375 0-3.136719 3.136719-3.136719 8.222657 0 11.359376l14.320312 14.242187-73.601562 73.519531-28.238281-28.238281c-4.519532-4.503906-7.058594-10.621094-7.058594-17 0-6.382813 2.539062-12.5 7.058594-17zm147.039062 169.757813c-3.121094 3.101562-8.160156 3.101562-11.277344 0l-5.683594-5.679688 11.363282-11.28125 5.597656 5.601562c1.515625 1.5 2.367188 3.546876 2.367188 5.679688s-.851563 4.179688-2.367188 5.679688zm22.640625-22.640626c-3.121094 3.101563-8.160156 3.101563-11.28125 0l-5.277344-5.679687 5.679688-5.679687 5.597656-5.601563 5.679687 5.601563c1.464844 1.554687 2.246094 3.628906 2.171876 5.765624-.078126 2.132813-1 4.148438-2.570313 5.59375zm22.640625-22.640624c-3.121094 3.101562-8.160156 3.101562-11.28125 0l-5.679688-5.679688 11.28125-11.277344 5.679688 5.679688c3.101562 3.121094 3.101562 8.160156 0 11.277344zm22.640625-33.917969c3.101563 3.121093 3.101563 8.160156 0 11.28125-1.503906 1.511719-3.546875 2.363281-5.679687 2.363281-2.132813 0-4.179688-.851562-5.679688-2.363281l-5.601562-5.683594 11.121093-11.277344zm5.679687-40-17.039062 17.519531-56.5625 56.558594-11.277344 11.28125-22.640625 22.480468c-3.175781 2.71875-7.90625 2.535157-10.863281-.417968-2.953125-2.957032-3.136719-7.6875-.417969-10.863282l51.28125-50.960937c2.28125-1.953125 3.277344-5.023437 2.574219-7.945313-.703125-2.921874-2.984375-5.203124-5.90625-5.90625-2.925781-.703124-5.992188.289063-7.949219 2.574219l-50.960937 50.878907c-3.171875 2.71875-7.90625 2.535156-10.859375-.417969-2.957031-2.957031-3.136719-7.6875-.417969-10.863281l50.878906-50.878907c1.515625-1.5 2.367188-3.546875 2.367188-5.679687 0-2.132813-.851563-4.175782-2.367188-5.679688-3.121094-3.101562-8.160156-3.101562-11.28125 0l-50.960937 50.960938c-3.117188 3.101562-8.15625 3.101562-11.277344 0-1.515625-1.503906-2.367187-3.546875-2.367187-5.679688 0-2.132812.851562-4.179687 2.367187-5.679687l50.878906-50.882813c1.515625-1.5 2.367188-3.546875 2.367188-5.679687 0-2.132813-.851563-4.175781-2.367188-5.679688-3.121093-3.101562-8.160156-3.101562-11.28125 0l-50.957031 50.960938c-3.136719 3.113281-8.207031 3.097656-11.320312-.039063-3.117188-3.136718-3.097657-8.207031.039062-11.320312l79.199219-79.199219 11.28125 11.359375c4.503906 4.519531 10.621093 7.058594 17 7.058594 6.378906 0 12.496093-2.539063 17-7.058594 9.359375-9.371094 9.359375-24.550781 0-33.921875l-32.960938-32.960937c9.160157-4.378907 20.082031-2.519532 27.28125 4.640624l67.917969 67.921876c9.25 9.480468 9.070312 24.660156-.398438 33.917968zm5.597657-50.960938-50.878907-50.878906 11.28125-11.28125 11.359376 11.28125 13.121093 13.121094 26.480469 26.476562zm0 0" fill="#39519d"/><path d="m312.082031 120c0 4.417969 3.582031 8 8 8s8-3.582031 8-8c0-48.601562-39.398437-88-88-88-48.601562 0-88 39.398438-88 88 0 4.417969 3.582031 8 8 8s8-3.582031 8-8c.015625-36.65625 27.570313-67.445312 64-71.519531v16.640625c-15.410156 4.183594-25.375 19.082031-23.363281 34.917968 2.015625 15.839844 15.398438 27.769532 31.363281 27.960938 8.835938 0 16 7.164062 16 16s-7.164062 16-16 16c-8.835937 0-16-7.164062-16-16 0-4.417969-3.582031-8-8-8s-8 3.582031-8 8c.046875 14.554688 9.90625 27.242188 24 30.878906v9.121094c0 4.417969 3.582031 8 8 8s8-3.582031 8-8v-9.121094c15.40625-4.183594 25.375-19.082031 23.359375-34.917968-2.015625-15.839844-15.394531-27.769532-31.359375-27.960938-8.835937 0-16-7.164062-16-16s7.164063-16 16-16c8.835938 0 16 7.164062 16 16 0 4.417969 3.582031 8 8 8s8-3.582031 8-8c-.046875-14.554688-9.910156-27.242188-24-30.878906v-16.640625c36.425781 4.074219 63.980469 34.863281 64 71.519531zm0 0" fill="#39519d"/><path d="m128.082031 128c4.417969 0 8-3.582031 8-8 0-57.4375 46.5625-104 104-104s104 46.5625 104 104c0 4.417969 3.582031 8 8 8s8-3.582031 8-8c0-66.273438-53.726562-120-120-120-66.277343 0-120 53.726562-120 120 0 4.417969 3.582031 8 8 8zm0 0" fill="#39519d"/><path d="m376.082031 80h16v72c0 4.417969 3.582031 8 8 8s8-3.582031 8-8v-80c0-4.417969-3.582031-8-8-8h-8l32-42.640625 32 42.640625h-8c-4.417969 0-8 3.582031-8 8v80c0 4.417969 3.582031 8 8 8s8-3.582031 8-8v-72h16c3.027344 0 5.800781-1.710938 7.152344-4.421875 1.355469-2.710937 1.066406-5.953125-.753906-8.378906l-48-64c-1.511719-2.011719-3.882813-3.199219-6.398438-3.199219-2.519531 0-4.890625 1.1875-6.402343 3.199219l-48 64c-1.816407 2.425781-2.109376 5.667969-.753907 8.378906s4.125 4.421875 7.15625 4.421875zm0 0" fill="#39519d"/><path d="m49.679688 156.800781c1.511718 2.011719 3.882812 3.199219 6.402343 3.199219 2.515625 0 4.886719-1.1875 6.398438-3.199219l48-64c1.820312-2.425781 2.109375-5.667969.753906-8.378906-1.351563-2.710937-4.125-4.421875-7.152344-4.421875h-16v-72c0-4.417969-3.582031-8-8-8s-8 3.582031-8 8v80c0 4.417969 3.582031 8 8 8h8l-32 42.640625-32-42.640625h8c4.417969 0 8-3.582031 8-8v-80c0-4.417969-3.582031-8-8-8s-8 3.582031-8 8v72h-16c-3.03125 0-5.800781 1.710938-7.15625 4.421875s-1.0625 5.953125.753907 8.378906zm0 0" fill="#39519d"/></svg>